# xmcd
#
# Track frame offsets:
#	150
#	18187
#	33503
#	47797
#	75495
#	92244
#	115656
#	134956
#	152810
#	172920
#	191900
#	208188
#
# Disc length: 3014 seconds
#
# Revision: 3
# Processed by: cddbd v1.5.2PL0 Copyright (c) Steve Scherf et al.
# Submitted via: EZCDAudioConverter 3.1.0.1
#
DISCID=a20bc40c
DTITLE=인순이 - Anthology(97-08) CD2
DYEAR=1900
DGENRE=blues
TTITLE0=Tonight (Jeppet wzsh mix)
TTITLE1=Love
TTITLE2=Lullaby Birdland
TTITLE3=Life
TTITLE4=Don't Get Around Much Anymore
TTITLE5=My Love
TTITLE6=친구여
TTITLE7=Tonight (Original Mix)
TTITLE8=여정
TTITLE9=비에스친 날들
TTITLE10=비상
TTITLE11=Amazing Grace
EXTD=
EXTT0=
EXTT1=
EXTT2=
EXTT3=
EXTT4=
EXTT5=
EXTT6=
EXTT7=
EXTT8=
EXTT9=
EXTT10=
EXTT11=
PLAYORDER=
